<?xml version="1.0" encoding="utf-8"?>
<!-- Svg Vector Icons : http://www.onlinewebfonts.com/icon -->
<!DOCTYPE svg PUBLIC "-//W3C//DTD SVG 1.1//EN" "http://www.w3.org/Graphics/SVG/1.1/DTD/svg11.dtd">
<svg version="1.1" xmlns="http://www.w3.org/2000/svg" xmlns:xlink="http://www.w3.org/1999/xlink" x="0px" y="0px" viewBox="0 0 1000 1000" enable-background="new 0 0 1000 1000" xml:space="preserve">
<metadata> Svg Vector Icons : http://www.onlinewebfonts.com/icon </metadata>
<g><g transform="translate(0.000000,511.000000) scale(0.100000,-0.100000)"><path d="M8667.3,4970.8c-22.9-22.9-54-41.6-66.5-41.6c-60.3,0-328.4-112.2-328.4-137.2c0-14.5-20.8-41.6-45.7-58.2c-47.8-33.3-49.9-31.2,56.1-64.4c49.9-14.6,35.3-52-20.8-52c-54,0-153.8-89.4-155.9-139.3c0-33.2,10.4-33.2-106,2.1c-101.9,31.2-149.6,18.7-201.6-54c-29.1-39.5-191.2-54-191.2-16.6c0,27-76.9,27-93.5,0c-8.3-12.5-20.8-16.6-29.1-12.5c-8.3,6.3-49.9,2.1-91.4-10.4c-74.8-20.8-87.3-49.9-37.4-110.1c22.9-27,20.8-37.4-4.2-62.4c-16.6-16.6-47.8-31.2-68.6-33.3c-147.6-6.2-151.7-8.3-139.2-68.6l12.5-60.3l-87.3,43.6c-47.8,24.9-81,54-74.8,64.4c8.3,12.5,2.1,20.8-8.3,20.8c-12.5,0-20.8,10.4-16.6,24.9c2.1,16.6-33.2,31.2-93.5,37.4c-87.3,10.4-97.7,8.3-103.9-31.2c-4.2-31.2-24.9-43.7-83.1-47.8c-45.7-4.2-79,2.1-79,14.5c0,31.2-110.1,29.1-141.3-2.1c-18.7-18.7-31.2-18.7-49.9,0c-29.1,29.1-128.9,35.3-112.2,6.2c12.5-18.7-91.4-72.7-108.1-54c-6.2,6.2,29.1,52,79,103.9c49.9,52,93.5,106,95.6,122.6c6.3,39.5-89.4,101.8-130.9,87.3c-52-20.8-135.1,10.4-122.6,43.6c20.8,49.9-79,22.9-99.8-27c-22.9-52-128.8-95.6-193.3-79c-27,8.3-47.8,4.2-47.8-8.3c0-12.5-47.8-27-103.9-35.3c-95.6-12.5-106-20.8-118.5-74.8c-10.4-58.2-16.6-60.3-122.6-60.3c-101.8,0-112.2-4.2-124.7-52c-8.3-35.3-2.1-66.5,22.9-91.4c29.1-35.3,31.2-49.9,8.3-124.7c-14.6-47.8-35.3-83.1-47.8-79c-29.1,10.4-16.6,79,20.8,116.4c24.9,27,18.7,39.5-37.4,85.2c-54,45.7-72.7,52-114.3,33.3c-33.2-16.6-43.6-35.3-35.3-62.4c8.3-27,4.2-35.3-14.5-29.1c-16.6,6.2-29.1,35.3-29.1,64.4c2.1,64.4,2.1,64.4-54,35.3c-20.8-12.5-39.5-37.4-39.5-58.2c0-18.7-18.7-66.5-41.6-103.9l-41.6-66.5l52-20.8c62.4-22.9,87.3-74.8,58.2-120.5c-37.4-62.3-68.6-52-47.8,14.5c14.6,56.1,12.5,64.4-20.8,64.4c-22.9,0-49.9-18.7-62.3-41.6c-12.5-20.8-64.4-68.6-116.4-106l-95.6-64.4l-43.6,43.7l-43.6,43.6h56.1c70.7,0,205.8,97.7,197.4,143.4c-2.1,18.7,20.8,76.9,52,128.9c31.2,52,56.1,110.1,56.1,126.8c0,16.6,18.7,47.8,41.6,68.6c27,24.9,35.3,45.7,22.9,58.2c-10.4,10.4-14.5,35.3-6.2,54c10.4,29.1,8.3,29.1-29.1,4.2c-20.8-16.6-62.3-52-91.4-76.9c-29.1-24.9-72.7-52-97.7-58.2c-22.9-8.3-60.3-37.4-79-68.6c-29.1-43.6-31.2-62.4-12.5-103.9c20.8-43.6,18.7-58.2-12.5-81.1c-52-39.5-62.3-35.3-85.2,29.1l-18.7,56.1l-12.5-74.8c-18.7-91.4-83.1-126.8-334.6-176.7l-180.8-35.3l-76.9-110.2c-41.6-62.4-91.5-118.5-108.1-124.7c-16.6-6.2-97.7-87.3-178.7-180.8c-103.9-118.5-168.3-176.7-218.2-191.2c-66.5-18.7-70.7-27-64.4-97.7c4.2-66.5-2.1-79-41.6-89.4c-27-6.2-76.9-2.1-110.2,10.4c-76.9,29.1-97.7,6.2-89.4-95.6c6.2-79,8.3-81.1,93.5-87.3c110.1-8.3,116.4-45.7,16.6-106c-70.7-41.6-93.5-91.4-52-116.4c12.5-8.3,35.3-45.7,52-87.3c39.5-91.4,10.4-143.4-56.1-108.1c-22.9,12.5-54,16.6-70.7,10.4c-18.7-6.2-29.1,2.1-29.1,29.1c0,22.9-18.7,49.9-43.6,62.4c-22.9,12.5-58.2,52-81,87.3c-37.4,64.4-201.6,139.2-305.5,141.3c-56.1,0-110.1-72.7-110.1-147.6c0-31.2-22.9-83.1-49.9-116.4c-72.7-87.3-83.1-139.2-33.3-182.9c54-49.9,52-66.5-18.7-133c-49.9-45.7-68.6-52-106-35.3c-35.3,16.6-52,12.5-70.7-14.6c-20.8-27-31.2-29.1-52-8.3c-20.8,18.7-24.9,16.6-20.8-16.6c2.1-22.9-2.1-68.6-12.5-99.8c-10.4-37.4-6.2-76.9,10.4-108.1c20.8-39.5,20.8-56.1-8.3-95.6c-18.7-27-33.3-58.2-33.3-70.7c0-10.4,8.3-8.3,18.7,8.3c33.3,52,85.2,8.3,85.2-70.7c0-62.4-6.2-72.7-49.9-72.7c-27,0-54,12.5-60.3,27c-6.2,18.7-18.7,14.6-47.8-10.4c-29.1-29.1-31.2-43.6-12.5-62.3c31.2-31.2,33.3-87.3,2.1-66.5c-14.5,8.3-18.7,0-10.4-29.1c14.6-41.6-74.8-274.3-103.9-274.3c-8.3,0-45.7,10.4-81.1,24.9c-47.8,16.6-83.1,54-126.8,130.9c-54,101.8-56.1,114.3-33.3,195.4c14.6,47.8,39.5,85.2,56.1,85.2c16.6,0,39.5,18.7,52,41.6c12.5,22.9,35.3,41.6,52,41.6c24.9,0,22.9,14.6-10.4,76.9c-22.9,43.6-41.6,99.8-41.6,126.8c0,52-52,193.3-139.3,374.1c-29.1,60.3-60.3,135.1-70.7,166.3c-14.5,45.7-16.6,39.5-10.4-39.5c4.2-54-6.2-126.8-20.8-162.1c-22.9-54-37.4-64.4-97.7-64.4c-106,0-201.6,135.1-201.6,286.8c0,97.7-49.9,149.6-139.3,149.6c-47.8,0-68.6,12.5-89.4,58.2c-18.7,41.6-29.1,47.8-39.5,25c-20.8-52-58.2-43.7-85.2,20.8C963,2616,946.3,2643,938,2643c-33.3-2.1-68.6-41.6-58.2-68.6c6.2-16.6-10.4-52-35.3-79c-58.2-64.4-114.3-180.8-106-224.4c4.2-18.7,8.3-70.7,8.3-114.3c2.1-64.4,8.3-76.9,27-58.2c43.6,43.6,58.2,27,58.2-66.5c0-91.4,37.4-149.6,87.3-133c12.5,4.1,39.5-6.2,58.2-22.9c31.2-31.2,27-41.6-33.3-130.9c-37.4-54-70.7-106-74.8-114.3c-2.1-10.4-64.4-66.5-135.1-128.8c-108.1-91.5-135.1-128.9-160-220.3c-18.7-58.2-49.9-130.9-70.7-157.9c-27-35.3-39.5-91.4-43.6-185c-2.1-74.8-12.5-191.2-24.9-259.8c-10.4-68.6-20.8-143.4-18.7-166.3c0-22.9,2.1-89.4,2.1-147.6c2.1-56.1-8.3-141.3-22.9-185c-20.8-64.4-20.8-124.7,0-309.7c14.6-126.8,20.8-295.1,12.5-376.2c-6.2-79-18.7-232.8-24.9-338.8c-12.5-187.1-10.4-195.4,37.4-228.6c24.9-18.7,64.4-31.2,87.3-27c20.8,2.1,81.1-10.4,130.9-29.1c49.9-18.7,114.3-31.2,143.4-25c27,4.2,99.8,0,158-10.4c91.4-16.6,112.2-14.5,133,14.6c22.9,31.2,37.4,33.3,130.9,8.3c91.4-22.9,110.2-22.9,141.3,6.2c27,24.9,47.8,29.1,72.7,14.6c27-14.6,41.6-10.4,58.2,22.9c16.6,31.2,35.3,39.5,72.7,29.1c43.6-10.4,52-2.1,68.6,58.2c10.4,39.5,31.2,68.6,49.9,68.6c16.6,0,66.5,31.2,108.1,68.6c74.8,66.5,76.9,68.6,54,155.9c-14.6,47.8-52,116.4-87.3,153.8c-72.7,74.8-99.8,218.2-58.2,297.2c22.9,43.6,16.6,41.6-99.8-22.9c-120.6-64.5-126.8-66.5-178.7-33.3c-29.1,18.7-66.5,35.4-83.1,35.4c-49.9,0-64.4,99.7-27,178.7c20.8,41.6,27,74.8,14.6,81.1c-12.5,8.3-33.3-12.5-45.7-45.8l-24.9-58.2l-8.3,87.3c-4.2,49.9,2.1,103.9,12.5,124.7c14.6,22.9,12.5,54,0,87.3c-24.9,64.4-14.5,336.7,14.6,367.9c24.9,29.1,95.6,10.4,128.9-31.2c14.5-18.7,27-97.7,27-180.8c0-97.7,10.4-155.9,27-172.5c16.6-12.5,39.5-62.4,54-110.2c39.5-128.8,74.8-162.1,182.9-162.1h89.4v-91.5c0-91.4,4.2-95.6,168.3-228.6c155.9-124.7,185-137.2,355.4-176.7c101.8-24.9,199.5-43.6,216.1-43.6c18.7,0,29.1-22.9,29.1-60.3c0-33.2,12.5-64.4,31.2-72.7c16.6-6.3,31.2-35.3,31.2-64.4s10.4-52,20.8-52c12.5,0,39.5-41.6,62.3-93.5c33.3-76.9,49.9-93.5,93.5-93.5c35.3,0,52-10.4,45.7-25c-4.2-16.6-35.3-24.9-74.8-20.8l-66.5,6.3l70.7-110.2c62.3-95.6,81.1-110.1,145.5-116.4c64.4-6.2,74.8,0,95.6,58.2c12.5,37.4,31.2,60.3,43.6,52c16.6-10.4,14.6-22.9-2.1-43.7c-12.5-16.6-14.5-29.1-4.2-29.1c12.5,0,12.5-35.4,0-97.7c-10.4-56.1-16.6-207.8-14.6-338.7c4.2-220.3,12.5-261.9,103.9-550.8c54-170.5,110.1-363.7,122.6-428.2c16.6-83.1,41.6-133,87.3-176.6l64.4-60.3l31.2,45.7c18.7,27,47.8,47.8,68.6,47.8c20.8,0,41.6,18.7,47.8,43.6c6.2,22.9,31.2,47.8,54,54c33.3,8.3,43.6,27,43.6,81.1c0,39.5,14.6,106,33.3,149.6c18.7,41.6,33.3,122.6,31.2,176.7c-6.2,130.9,12.5,187.1,54,170.4c18.7-6.2,47.8,2.1,66.5,16.6c18.7,16.6,58.2,35.4,91.4,43.7c31.2,6.2,56.1,24.9,56.1,41.6c0,14.6,39.5,43.7,89.4,64.5c47.8,20.8,124.7,68.6,170.4,103.9c45.7,37.4,116.4,76.9,158,91.4c91.4,29.1,153.8,91.4,137.2,137.2c-8.3,20.8,4.2,35.3,37.4,43.6c29.1,6.2,62.4,29.1,72.7,47.8c16.6,29.1,18.7,29.1,20.8-6.2c0-29.1,6.2-33.2,27-14.6c16.6,12.5,35.3,16.6,41.6,8.3c20.8-18.7,118.5-20.8,118.5-2.1c0,8.3,14.6,10.4,31.2,4.2c18.7-8.3,31.2,0,31.2,14.6c0,22.9,6.2,22.9,20.8-2.1c16.6-25,20.8-20.8,20.8,16.6c0,37.4,10.4,47.8,43.6,41.6c33.3-4.2,60.3-45.7,106-155.9c35.3-83.1,70.6-145.5,79-141.3c8.3,6.2,20.8-4.2,29.1-20.8c6.2-16.6,24.9-31.2,41.6-31.2c56.1,0,122.6-257.7,91.4-367.9c-10.4-39.5-14.6-76.9-8.3-83.1c20.8-20.8,137.2-27,137.2-6.2c0,12.5,18.7,20.8,43.6,20.8c22.9,0,35.3,8.3,29.1,20.8c-6.2,12.5,2.1,14.5,18.7,8.3c22.9-8.3,39.5,4.2,52,35.3l16.6,49.9l14.6-47.8c8.3-24.9,27-45.7,41.6-45.7c18.7,0,31.2-45.8,37.4-147.6c6.2-81,20.8-153.8,31.2-162.1c39.5-24.9,66.5-99.8,66.5-191.2c2.1-149.7-12.5-345-27-370c-8.3-10.4,24.9-56.1,70.7-97.7c97.7-89.4,128.9-143.4,164.2-282.7c37.4-157.9,97.7-239,236.9-315.9c99.7-58.2,133-66.5,162.1-47.8c35.3,20.8,35.3,25-4.2,79c-24.9,37.4-39.5,91.4-39.5,155.9c0,93.5-6.2,106-106,197.4c-58.2,54-131,103.9-162.1,112.2c-81,20.8-99.8,43.6-128.8,157.9c-18.7,70.7-37.4,101.8-62.4,101.8c-62.3,0-66.5,95.6-8.3,195.4c29.1,49.8,52,120.5,52,162.1c0,74.8,24.9,99.8,97.7,99.8c20.8,0,29.1-12.5,20.8-41.6c-8.3-33.3,0-41.6,39.5-41.6c83.1,0,168.4-56.1,193.3-126.8c14.5-45.7,31.2-60.3,54-52c18.7,6.2,31.2,0,31.2-18.7c0-16.6,6.2-29.1,16.6-27c8.3,4.2,45.7-8.3,85.2-22.9c62.4-27,68.6-35.3,58.2-99.8c-12.5-76.9,10.4-87.3,85.2-35.3c29.1,20.8,43.7,45.7,37.4,64.4c-10.4,22.9-4.1,27,18.7,18.7c18.7-6.3,29.1-4.1,22.9,4.1c-12.5,22.9,56.1,81.1,83.1,72.7c10.4-4.1,62.4,20.8,112.2,52c122.6,76.9,155.9,185,114.3,363.7c-35.3,151.7-74.8,212-172.5,261.9c-112.2,58.2-253.6,247.3-239,320c6.2,31.2,29.1,70.7,52,85.2c20.8,16.6,41.6,47.8,43.6,72.7c2.1,27,16.6,43.7,39.5,43.7c20.8,0,43.6,14.5,49.9,31.2c8.3,16.6,29.1,31.2,47.8,31.2c18.7,0,45.7,10.4,60.3,24.9c16.6,16.6,31.2,16.6,52,0c20.8-16.6,35.3-16.6,49.9-2.1c27,27,74.8,4.1,56.1-24.9c-16.6-29.1,8.3-122.6,33.2-122.6c12.5,0,20.8,29.1,20.8,62.3c0,39.5,10.4,62.4,29.1,62.4c14.6,0,49.9,16.6,76.9,39.5c27,20.8,72.7,45.7,97.7,54.1c70.7,20.8,120.5,76.9,110.1,124.7c-6.2,41.6-6.2,41.6,37.4,2.1c33.2-31.2,49.9-33.2,72.7-14.6c16.6,12.5,58.2,29.1,95.6,33.3c62.3,8.3,155.9,68.6,137.2,87.3c-12.5,14.6,56.1,79,99.8,95.6c22.9,8.3,33.2,27,24.9,45.8c-6.2,18.7,0,31.2,18.7,31.2c16.6,0,31.2,14.5,31.2,31.2c0,16.6,10.4,31.2,24.9,31.2c12.5,0,16.6,6.2,10.4,12.5c-8.3,8.3,2.1,29.1,22.9,47.8c18.7,18.7,35.3,62.4,35.3,99.8c-2.1,39.5,8.3,68.6,22.9,68.6c27,0,58.2,135.1,39.5,164.2c-6.2,10.4,8.3,25,31.2,33.3c31.2,10.4,39.5,27,33.3,74.8c-4.1,33.2,0,60.3,8.3,60.3s16.6,22.9,16.6,52c0,56.1-41.6,72.7-120.5,47.8c-47.8-14.5-45.7-10.4,16.6,43.7l68.6,58.2l-58.2,43.6l-58.2,43.7l52,2.1h52l-64.4,49.9c-35.3,29.1-79,89.4-99.8,135.1c-29.1,60.3-54,87.3-97.7,95.6c-35.3,8.3-60.3,27-60.3,45.7c0,35.3,64.4,158,89.4,168.4c8.3,4.2,14.6,24.9,14.6,45.7c0,41.6,74.8,95.6,120.5,87.3c12.5-4.2,24.9,6.2,24.9,22.9c0,18.7-31.2,33.3-87.3,41.6c-79,10.4-97.7,4.2-153.8-49.9l-64.4-62.3l-27,62.3c-20.8,52-39.5,64.4-85.2,64.4c-49.9,0-60.3,8.3-60.3,49.9c0,35.3,14.6,54,52,62.3c35.3,8.3,72.7,49.9,116.4,126.8c74.8,133,126.8,170.4,164.2,122.6c20.8-22.9,20.8-41.6,2.1-83.1c-12.5-29.1-22.9-60.3-22.9-70.7c0-33.3,62.4-8.3,120.5,47.8c43.7,43.6,79,56.1,145.5,56.1c83.1,0,87.3-2.1,74.8-52c-8.3-35.3-4.2-52,12.5-52c18.7,0,16.6-12.5-8.3-39.5c-41.6-45.7-12.5-66.5,74.8-49.9c39.5,8.3,62.4-2.1,85.2-37.4c31.2-43.7,31.2-47.8-2.1-72.7c-31.2-22.9-31.2-27,18.7-49.9c43.7-18.7,49.9-35.3,43.7-93.5c-4.2-37.4,0-85.2,10.4-103.9c16.6-29.1,24.9-27,72.7,16.6c27,27,62.3,43.7,74.8,39.5c14.6-4.2,24.9,6.2,24.9,24.9s10.4,33.3,22.9,33.3c16.6,0,20.8,35.3,14.6,106c-8.3,87.3-24.9,118.5-91.4,187.1c-43.7,47.8-106,97.7-137.2,114.3c-33.3,16.6-58.2,39.5-58.2,52c0,12.5,31.2,66.5,70.7,120.5c54,74.8,66.5,106,52,141.3c-16.6,45.7,18.7,172.5,47.8,172.5c8.3,0,16.6,24.9,16.6,54c0,49.9,6.2,54,68.6,41.6c58.2-10.4,72.7-4.2,120.5,56.1c118.5,147.6,153.8,739.9,54,906.2c-22.9,37.4-49.9,112.2-60.3,166.3c-10.4,58.2-35.3,108.1-62.3,128.9c-22.9,18.7-37.4,43.6-29.1,56.1c14.5,22.9-128.9,87.3-166.3,72.7c-14.5-4.2-31.2-31.2-37.4-60.3c-14.5-52-54-70.7-54-22.9c0,18.7-4.2,18.7-18.7-2.1c-14.5-22.9-18.7-22.9-29.1,4.2c-8.3,20.8-37.4,33.3-76.9,33.3c-33.3,0-62.3,4.2-62.3,6.2c0,4.2,18.7,60.3,39.5,124.7c22.9,62.4,47.8,199.5,54,301.4l14.6,185l101.8,66.5c56.1,35.3,116.4,70.7,133,76.9c18.7,8.3,29.1,24.9,22.9,39.5c-10.4,29.1,29.1,52,93.5,52c22.9,0,35.3-8.3,29.1-20.8c-29.1-45.7,31.2-16.6,70.7,33.3c49.9,64.4,56.1,95.6,14.5,79c-18.7-8.3-39.5,20.8-62.4,87.3c-39.5,118.4-41.6,155.9-8.3,226.5c29.1,62.3,49.9,66.5,68.6,10.4c6.2-22.9,27-41.6,43.6-41.6c24.9,0,27,16.6,16.6,79c-8.3,41.6-27,93.5-43.7,112.2s-24.9,45.7-16.6,56.1c18.7,31.2,52,29.1,52-4.2c0-14.6,27-54,60.3-85.2c39.5-37.4,56.1-70.7,49.9-101.8c-4.2-24.9,14.6-110.2,43.7-187.1c33.3-87.3,49.9-160,41.6-191.2c-24.9-99.8,83.1-241.1,384.5-507.1l151.7-133l-14.5,81c-8.3,43.7-33.3,99.8-56.1,124.7c-35.3,39.5-35.3,45.7-6.2,70.7c29.1,25,27,33.3-14.6,76.9c-33.2,35.3-45.7,70.7-39.5,114.3c4.1,45.7-10.4,79-49.9,120.5c-31.2,33.3-49.9,68.6-43.6,81.1c8.3,10.4-14.6,37.4-49.9,56.1c-33.2,20.8-62.3,45.7-62.3,56.1c0,10.4-16.6,14.6-35.3,10.4c-24.9-6.2-60.3,24.9-103.9,91.5c-70.7,101.8-83.1,141.3-45.7,141.3c12.5,0,16.7,18.7,8.3,43.6c-10.4,33.3-8.3,39.5,10.4,29.1s22.9-8.3,12.5,8.3c-24.9,37.4,8.3,106,49.9,106c39.5,0,39.5,2.1,2.1,68.6c-68.6,116.4-108.1,280.6-79,328.4c20.8,33.3,18.7,43.7-6.2,60.3c-52,33.3-216.2,49.9-224.5,22.9c-4.2-12.5-16.6-22.9-27-22.9c-10.4,0-8.3,24.9,4.2,56.1c16.6,45.7,12.5,62.3-24.9,103.9c-27,24.9-58.2,47.8-74.8,47.8c-14.6,0-27,10.4-27,20.8c0,12.5,22.9,16.6,52,8.3c31.2-8.3,52-4.2,52,10.4c0,12.5,22.9,22.9,49.9,22.9c27,0,58.2,12.5,70.6,27c16.6,20.8,6.2,33.3-39.5,54c-35.3,14.6-68.6,43.7-76.9,62.4C8790,5020.7,8727.6,5031,8667.3,4970.8z"/><path d="M8729.7,2632.7c0-54,56.1-147.6,108.1-180.8c27-18.7,108.1-145.5,182.9-284.7c74.8-139.2,137.2-239,141.3-220.3c4.2,16.6,18.7,31.2,31.2,31.2c14.6,0,0,20.8-31.2,47.8c-31.2,24.9-70.7,79-89.4,122.6c-24.9,64.4-27,79,0,99.8c16.6,12.5,41.6,16.6,56.1,8.3c14.6-10.4-60.3,68.6-164.2,172.5c-106,106-193.3,201.6-193.3,214.1c0,10.4-8.3,20.8-20.8,20.8C8740.1,2663.8,8729.7,2649.3,8729.7,2632.7z"/><path d="M9575.6,2027.9c-8.3-8.3-14.6-35.3-14.6-58.2c2.1-39.5,2.1-41.6,22.9-6.2C9606.7,2002.9,9600.5,2052.8,9575.6,2027.9z"/><path d="M9523.6,1811.7c0-29.1,4.2-39.5,10.4-24.9c4.2,12.5,4.2,37.4,0,52C9527.8,1851.2,9523.6,1840.8,9523.6,1811.7z"/><path d="M9218.1,1766c8.3-27,29.1-81.1,45.7-120.5c22.9-60.3,25-74.8,2.1-93.5c-33.3-24.9-35.3-145.5-4.2-176.7c12.5-12.5,39.5-14.6,60.3-8.3c35.3,14.5,35.3,16.6-6.2,31.2c-52,18.7-62.3,60.3-14.6,60.3c16.6,0,31.2,10.4,31.2,20.8c0,12.5,33.3,20.8,72.8,20.8c64.4,0,72.7,6.2,72.7,52c0,29.1,12.5,74.8,29.1,99.8c24.9,37.4,24.9,54,4.1,95.6c-22.9,39.5-29.1,43.7-39.5,14.6c-18.7-45.7-83.1-41.6-182.9,10.4l-85.2,41.6L9218.1,1766z"/><path d="M9374,1323.3c20.8-25,20.8-31.2-8.3-31.2c-41.6,0-45.7-114.3-4.1-130.9c14.5-6.2,33.2-56.1,41.6-114.3c10.4-79,2.1-128.9-31.2-220.3c-47.8-122.6-66.5-139.2-97.7-81c-14.6,22.9-18.7-2.1-16.6-85.2l2.1-118.5L9149.5,494c-85.2-37.4-124.7-70.7-182.9-155.9c-41.6-62.4-66.5-118.5-56.1-128.9c20.8-20.8,110.1,0,110.1,24.9c0,24.9,139.3,149.6,189.1,168.3c29.1,12.5,39.5,6.2,39.5-22.9c0-20.8,14.6-49.9,33.2-66.5c27-20.8,35.3-20.8,52,4.2c58.2,85.2,60.3,99.8,24.9,120.5c-33.2,18.7-33.2,24.9-6.2,43.6c41.6,27,68.6,27,49.9-2.1c-8.3-16.6-2.1-16.6,27-2.1c20.8,12.5,52,45.7,68.6,74.8c14.6,29.1,35.3,54,45.7,54c8.3,0,16.6,20.8,16.6,43.7c0,37.4,4.2,39.5,31.2,18.7c27-20.8,31.2-18.7,31.2,16.6c0,24.9-8.3,49.9-20.8,56.1c-10.4,6.2-20.8,35.3-20.8,64.4s-14.6,79-31.2,114.3c-18.7,33.3-24.9,72.7-16.6,87.3c45.7,74.8-76.9,345-158,347.1C9353.2,1354.5,9353.2,1348.2,9374,1323.3z"/><path d="M9110,282.1c-70.6-79-74.8-91.5-47.8-122.6c37.4-43.6,56.1-39.5,70.7,20.8c8.3,31.2,22.9,45.7,41.6,39.5c33.2-12.5,64.4,60.3,43.6,95.6C9197.3,350.6,9157.8,338.2,9110,282.1z"/><path d="M8866.9,130.3c-20.8-22.9-33.3-56.1-29.1-74.8c8.3-47.8,47.8-29.1,41.6,20.8l-6.2,41.6l33.3-41.6c20.8-27,31.2-70.7,27-118.5c-4.2-54,2.1-81,22.9-89.3c52-20.8,85.2,33.2,85.2,135.1c0,83.1-8.3,103.9-52,133C8925.1,180.2,8910.5,178.1,8866.9,130.3z"/><path d="M8205.9-1181.1c-70.7-126.8-72.7-166.3-8.3-226.5l49.9-45.7l22.9,141.3c14.5,76.9,31.2,162.1,37.4,189.1C8328.6-1037.7,8264.1-1073,8205.9-1181.1z"/><path d="M8324.4-1860.7c-39.5-6.2-43.6-20.8-35.3-141.3c8.3-126.8,6.2-135.1-35.3-135.1c-49.9,0-52-6.3-18.7-95.6c22.9-64.4,79-114.3,79-70.6c0,12.5,10.4,20.8,22.9,20.8c14.6,0,18.7-20.8,10.4-52c-10.4-41.6-6.2-52,24.9-52c20.8,0,47.8,10.4,62.4,24.9c18.7,18.7,33.3,14.6,66.5-14.5c39.5-35.4,41.6-35.4,41.6,0c0,35.3,2.1,35.3,37.4,4.1c54.1-49.9,83.1-43.6,83.1,16.7c0,31.2-12.5,52-29.1,52c-16.6,0-29.1-10.4-29.1-25c0-12.5-12.5-8.3-27,12.5c-25,35.3-31.2,35.3-60.3,4.2c-31.2-31.2-37.4-29.1-76.9,20.8c-54,68.6-54,64.4-2.1,187.1c35.3,81.1,39.5,110.1,18.7,155.9c-12.5,31.2-16.7,68.6-8.3,79C8461.6-1846.2,8409.6-1842,8324.4-1860.7z"/><path d="M7087.8-1881.5c-29.1-6.2-72.7-29.1-97.7-52c-37.4-35.3-41.6-49.9-22.9-91.4c29.1-62.4,76.9-72.7,145.5-25c54,37.4,108.1,147.6,85.2,170.4C7183.4-1866.9,7173-1866.9,7087.8-1881.5z"/><path d="M5258.9-2012.4c0-10.4,10.4-20.8,20.8-20.8c12.5,0,20.8,10.4,20.8,20.8c0,12.5-8.3,20.8-20.8,20.8C5269.3-1991.6,5258.9-2000,5258.9-2012.4z"/><path d="M8781.6-2426c-39.5-16.6-39.5-16.6,6.2-45.7c24.9-16.6,45.7-39.5,45.7-54.1c0-14.5,14.6-27,31.2-27c41.6,0,39.5,47.8-4.2,99.7C8833.6-2424,8810.8-2415.6,8781.6-2426z"/><path d="M8361.8-2494.6c43.7-60.3,76.9-60.3,76.9,2.1c0,27-18.7,41.6-60.3,47.8l-60.3,8.3L8361.8-2494.6z"/><path d="M8625.8-2490.4c0-10.4,10.4-20.8,22.9-20.8c10.4,0,14.6,10.4,8.3,20.8c-6.2,12.5-16.6,20.8-22.9,20.8C8629.9-2469.7,8625.8-2478,8625.8-2490.4z"/><path d="M8785.8-2615.1c20.8-35.4,43.6-54.1,54-43.7c31.2,31.2-6.2,106-49.9,106C8748.4-2552.8,8748.4-2554.9,8785.8-2615.1z"/><path d="M8501.1-2642.2c0-72.7,22.9-83.1,76.9-31.2c64.4,60.3,60.3,79-14.6,79C8511.5-2594.4,8501.1-2602.7,8501.1-2642.2z"/><path d="M8702.7-2675.4c-8.3-35.3-6.2-43.6,10.4-27c10.4,10.4,16.6,33.3,12.5,47.8C8719.3-2638,8711-2648.4,8702.7-2675.4z"/><path d="M8602.9-2729.4c-29.1-62.4-29.1-74.8-4.2-95.6c35.3-31.2,39.5-27,54,81C8665.3-2638,8648.6-2633.9,8602.9-2729.4z"/><path d="M8729.7-2739.8c0-10.4,8.3-20.8,18.7-20.8c12.5,0,27,10.4,33.3,20.8c6.2,12.5-2.1,20.8-18.7,20.8C8744.2-2719.1,8729.7-2727.4,8729.7-2739.8z"/><path d="M8896-2750.2c0-18.7-35.3-64.4-76.9-103.9c-60.3-54-83.1-64.4-106-47.8c-37.4,31.2-128.9-37.4-164.2-124.7c-31.2-76.9-4.2-91.5,31.2-14.5c16.6,33.2,35.3,47.8,56.1,39.5c16.6-8.3,43.6-2.1,60.3,10.4c49.9,41.6,95.6,6.2,81-62.3c-12.5-62.4-12.5-62.4,103.9-68.6c54-4.1,56.1,0,43.7,64.4c-12.5,70.7,6.2,87.3,52,43.6c20.8-18.7,24.9-18.7,14.5-2.1c-6.2,12.5-4.1,29.1,8.3,37.4c31.2,18.7,25,126.8-10.4,155.9c-16.6,14.5-29.1,41.6-27,58.2c4.2,18.7-10.4,37.4-29.1,41.6C8910.5-2719.1,8896-2729.4,8896-2750.2z"/><path d="M8199.7-2796l-35.3-58.2l47.8,45.7c24.9,24.9,41.6,52,35.3,58.2C8241.3-2744,8220.5-2764.8,8199.7-2796z"/><path d="M3652.3-2920.7c-31.2-114.3-33.3-160-12.5-245.2c20.8-81.1,31.2-93.5,76.9-93.5c29.1,0,68.6,14.5,89.4,33.2c33.3,29.1,33.3,41.6,8.3,122.6c-27,95.6-103.9,218.2-135.1,218.2C3668.9-2885.3,3656.5-2902,3652.3-2920.7z"/><path d="M8041.8-3003.8c-27-33.3-24.9-35.3,8.3-8.3c18.7,14.5,35.3,31.2,35.3,35.3C8085.4-2960.1,8068.8-2970.5,8041.8-3003.8z"/><path d="M7971.1-3240.7c-8.3-10.4-20.8-14.6-29.1-10.4c-8.3,6.2-31.2-22.9-49.9-62.3c-18.7-39.5-49.9-76.9-66.5-83.1c-16.6-8.3-24.9-20.8-18.7-31.2c6.3-10.4-31.2-37.4-83.1-58.2c-58.2-24.9-112.2-70.7-145.5-118.5c-35.3-52-85.2-91.5-141.3-114.3c-70.7-27-93.5-47.8-110.1-101.8c-20.8-66.5-22.9-66.5-116.4-56.1c-76.9,10.4-103.9,4.2-130.9-24.9c-37.4-41.6-43.6-118.4-12.5-137.2c12.5-8.3,16.6-20.8,10.4-31.2c-6.2-10.4,12.5-35.4,41.6-60.3c33.3-24.9,58.2-70.7,66.5-114.3c12.5-72.7,12.5-74.8,93.5-60.3c58.2,8.3,87.3,4.2,99.8-14.5c14.6-22.9,33.2-20.8,101.8,10.4c66.5,29.1,89.4,31.2,114.3,12.5c16.6-14.5,43.6-18.7,56.1-10.4c14.6,8.3,37.4-2.1,52-22.9c25-33.2,31.2-31.2,110.2,22.9c95.6,68.6,135.1,137.2,99.8,172.5c-27,27-4.2,56.1,72.7,93.5c31.2,14.5,49.9,45.7,54,85.2c4.2,35.3,20.8,76.9,37.4,95.6c16.6,18.7,22.9,39.5,14.6,49.9c-10.4,8.3,2.1,10.4,25,2.1c22.9-6.3,54-4.1,68.6,4.1c16.6,12.5,2.1,27-47.8,52c-43.6,20.8-68.6,45.7-60.3,62.4c4.2,14.6-8.3,45.7-33.2,66.5c-49.9,43.6-54,72.7-10.4,72.7c16.6,0,24.9,12.5,18.7,31.2c-8.3,18.7,6.2,33.3,41.6,43.6c43.6,10.4,49.9,18.7,31.2,41.6c-18.7,22.9-10.4,33.3,31.2,52c29.1,14.5,54,33.2,54,43.6c0,14.6-99.8,27-149.6,18.7c-10.4,0-16.6,16.6-16.6,37.4C8043.8-3238.6,7989.8-3207.5,7971.1-3240.7z"/><path d="M9172.4-3494.3c-29.1-64.4-14.6-172.5,27-189.1c20.8-8.3,22.9,0,8.3,39.5c-16.6,45.7-14.6,52,27,52c33.3,0,37.4,6.2,16.6,18.7c-18.7,12.5-20.8,22.9-4.2,31.2c33.3,20.8,27,60.2-6.2,47.8c-18.7-8.3-33.3,2.1-37.4,20.8C9199.4-3448.6,9191.1-3452.7,9172.4-3494.3z"/><path d="M5418.9-3569.1c6.2-22.9,49.9-66.5,97.7-97.7c47.8-31.2,108.1-87.3,133-126.8c27-37.4,79-85.2,116.4-103.9c54-24.9,74.8-49.9,85.2-101.8c8.3-45.7,37.4-89.4,89.4-130.9c43.7-33.2,110.2-108.1,149.6-166.3c95.6-141.3,365.8-324.2,482.2-324.2c85.2-2.1,89.4,4.1,110.1,143.4c16.6,108.1-8.3,157.9-81.1,157.9c-56.1,0-95.6,37.4-95.6,87.3c0,25-22.9,39.5-72.7,49.9c-72.7,12.5-72.7,14.5-41.6,62.3c31.2,47.8,29.1,52-18.7,70.7c-27,10.4-56.1,29.1-64.4,41.6c-6.2,10.4-22.9,16.6-33.2,8.3c-10.4-6.3-54.1,18.7-95.6,54c-47.8,41.6-79,58.2-87.3,43.6c-10.4-14.5-37.4,2.1-76.9,41.6c-33.3,35.3-101.8,85.2-153.8,112.2c-52,27-101.8,70.7-114.3,95.6c-25,62.4-93.5,93.5-232.8,112.2C5412.7-3527.5,5408.5-3527.5,5418.9-3569.1z"/><path d="M8819.1-3635.6c-33.2-33.3-83.1-47.8-216.1-62.3c-120.6-12.5-176.7-27-189.1-49.9c-10.4-16.6-27-27-39.5-20.8c-20.8,14.5-66.5-83.1-64.4-139.3c0-18.7-12.5-45.7-29.1-60.2c-16.6-12.5-29.1-43.7-29.1-68.6c0-22.9-14.6-62.4-31.2-83.1c-43.6-58.2-39.5-95.6,12.5-95.6c39.5,0,43.7-10.4,35.3-93.5c-6.2-85.2-2.1-93.5,35.3-89.4c35.3,6.3,41.6,25,47.8,135.1c4.2,103.9,14.6,135.1,45.7,151.7c41.6,22.9,49.9,16.6,43.6-43.6c-2.1-18.7,10.4-39.5,29.1-45.8c16.6-8.3,31.2-27,31.2-45.7c0-39.5,10.4-39.5,74.8,2.1c39.5,27,45.7,41.6,27,62.4c-12.5,14.5-18.7,39.5-14.6,54c6.2,14.6-18.7,47.8-54.1,74.8c-33.2,25-49.9,45.8-35.3,45.8c16.6,0,64.4,33.2,108.1,72.7c45.7,39.5,72.7,72.7,64.4,72.7c-49.9,0-164.2-54-187.1-87.3c-35.3-47.8-70.7-47.8-116.4,2.1c-27,29.1-29.1,49.9-14.5,89.4c16.6,45.7,45.7,56.1,241.1,99.8c199.5,43.6,224.5,54,251.5,108.1C8881.4-3579.5,8877.2-3577.4,8819.1-3635.6z"/><path d="M6931.9-3654.3c-6.2-10.4-2.1-20.8,8.3-20.8c12.5,0,22.9,10.4,22.9,20.8c0,12.5-4.2,20.8-8.3,20.8C6948.6-3633.5,6938.2-3641.8,6931.9-3654.3z"/><path d="M9145.4-3718.7c0-10.4,10.4-14.6,20.8-8.3c12.5,6.2,20.8,16.6,20.8,22.9c0,4.1-8.3,8.3-20.8,8.3C9155.8-3695.9,9145.4-3706.3,9145.4-3718.7z"/><path d="M9292.9-3895.4c-87.3-37.4-70.7-62.3,20.8-31.2c37.4,12.5,89.4,22.9,116.4,22.9c29.1,0,43.6,8.3,37.4,20.8C9448.8-3853.8,9376-3858,9292.9-3895.4z"/><path d="M5633-3964c0-12.5,18.7-31.2,41.6-43.6c27-14.6,41.6-14.6,41.6-2.1c0,12.5-18.7,31.2-41.6,43.6C5647.5-3951.5,5633-3951.5,5633-3964z"/><path d="M9024.8-4005.6c-22.9-14.5-20.8-20.8,6.2-31.2c39.5-14.5,72.7,0,72.7,31.2C9103.8-3982.7,9062.2-3980.6,9024.8-4005.6z"/><path d="M5830.4-4236.2c6.2-10.4,16.6-20.8,22.9-20.8c4.2,0,8.3,10.4,8.3,20.8c0,12.5-10.4,20.8-22.9,20.8C5828.3-4215.5,5824.2-4223.8,5830.4-4236.2z"/><path d="M6624.3-4250.8c-24.9-22.9-16.6-47.8,14.6-47.8c16.6,0,33.2-14.6,41.6-31.2c6.2-16.6,31.2-31.2,54-31.2c54,0,52,6.2-8.3,70.7C6676.3-4236.2,6649.3-4225.8,6624.3-4250.8z"/><path d="M8584.2-4284.1c0-16.6,14.6-29.1,31.2-29.1s31.2,12.5,31.2,29.1c0,14.6-14.6,27-31.2,27S8584.2-4269.5,8584.2-4284.1z"/><path d="M6900.8-4352.6c0-16.6,10.4-25,20.8-18.7c12.5,6.2,20.8,20.8,20.8,33.2c0,10.4-8.3,18.7-20.8,18.7C6911.2-4319.4,6900.8-4334,6900.8-4352.6z"/><path d="M8906.3-4527.2c-101.8-45.8-234.8-155.9-214.1-178.7c10.4-8.3,83.1,31.2,164.2,85.2C9056-4481.5,9072.6-4450.3,8906.3-4527.2z"/><path d="M9436.3-4612.4c0-10.4,10.4-14.6,20.8-8.3c12.5,6.2,20.8,16.6,20.8,22.9c0,4.1-8.3,8.3-20.8,8.3C9446.7-4589.6,9436.3-4600,9436.3-4612.4z"/><path d="M8428.3-4624.9c-45.7-6.2-91.4-18.7-103.9-31.2c-24.9-24.9,147.6-2.1,197.4,27c16.6,10.4,22.9,16.6,10.4,14.5C8521.9-4616.6,8474.1-4620.7,8428.3-4624.9z"/><path d="M6674.2-4674.8c-24.9-41.6-10.4-60.3,43.7-60.3c22.9,0,33.2-8.3,27-20.8c-8.3-12.5,64.4-20.8,201.6-22.9c118.5-2.1,270.2-4.2,338.8-4.2c230.7-4.1,490.5,14.6,503,33.3c6.2,12.5-14.5,16.6-54,10.4c-35.3-4.1-64.4-2.1-64.4,8.3c0,8.3-35.3,16.7-76.9,16.7c-41.6,0-91.4,12.5-108.1,29.1c-43.6,37.4-187.1,47.8-245.2,16.6c-54-29.1-218.2-33.2-245.2-6.2c-12.5,10.4-83.1,22.9-160,27C6724.1-4643.6,6692.9-4647.8,6674.2-4674.8z"/><path d="M7540.9-4666.5c14.6-6.2,33.3-4.1,39.5,2.1c8.3,6.2-4.2,12.5-27,10.4C7530.5-4654,7524.2-4660.2,7540.9-4666.5z"/><path d="M8075-4691.4c6.2-10.4-18.7-22.9-56.1-27c-37.4-4.1-66.5-14.5-62.4-27c8.3-25,43.7-18.7,155.9,31.2l87.3,39.5h-68.6C8093.7-4672.7,8066.7-4681,8075-4691.4z"/><path d="M7867.2-4735c-6.2-10.4,2.1-20.8,18.7-20.8c18.7,0,33.2,10.4,33.2,20.8c0,12.5-8.3,20.8-18.7,20.8C7888-4714.3,7873.4-4722.6,7867.2-4735z"/><path d="M8235.1-4753.8c-20.8-12.5-8.3-20.8,37.4-31.2c76.9-14.5,122.6,4.1,81.1,31.2C8316.1-4730.9,8270.4-4730.9,8235.1-4753.8z"/></g></g>
</svg>